<?xml version="1.0" standalone="no"?>
<!DOCTYPE svg PUBLIC "-//W3C//DTD SVG 20010904//EN"
 "http://www.w3.org/TR/2001/REC-SVG-20010904/DTD/svg10.dtd">
<svg version="1.0" xmlns="http://www.w3.org/2000/svg"
 width="150.000000pt" height="150.000000pt" viewBox="0 0 150.000000 150.000000"
 preserveAspectRatio="xMidYMid meet">
<metadata>
Created by potrace 1.11, written by Peter Selinger 2001-2013
</metadata>
<g transform="translate(0.000000,150.000000) scale(0.100000,-0.100000)"
fill="#000000" stroke="none">
<path d="M279 1069 c-8 -4 -38 -17 -67 -30 -144 -63 -219 -229 -170 -378 25
-75 52 -114 110 -161 75 -60 125 -71 316 -71 89 0 166 2 170 5 4 2 5 42 2 87
l-5 84 -145 0 c-126 1 -150 3 -179 20 -93 55 -90 185 4 241 25 15 55 18 193
19 160 1 163 1 185 25 55 61 115 144 111 154 -5 13 -500 17 -525 5z"/>
<path d="M833 1060 c-51 -61 -123 -156 -123 -162 0 -3 93 -7 208 -7 266 -1
284 -4 323 -68 41 -67 18 -157 -51 -198 -31 -17 -54 -20 -182 -22 l-148 -1 -1
26 c-1 15 -2 65 -3 112 l-1 85 -97 3 -98 3 -1 -133 c-1 -184 0 -248 6 -257 2
-5 129 -7 282 -6 275 1 279 1 333 27 50 23 130 88 139 113 2 6 10 24 17 40 25
58 27 71 29 129 4 147 -97 279 -245 319 -19 5 -111 10 -204 11 -143 2 -172 -1
-183 -14z"/>
</g>
</svg>
